<svg width="32" height="32" viewBox="0 0 32 32" fill="none" xmlns="http://www.w3.org/2000/svg">
<rect width="32" height="32" rx="16" fill="#33835C" fill-opacity="0.1"/>
<path d="M18.793 9.33301H13.2063C10.7797 9.33301 9.33301 10.7797 9.33301 13.2063V18.7863C9.33301 21.2197 10.7797 22.6663 13.2063 22.6663H18.7863C21.213 22.6663 22.6597 21.2197 22.6597 18.793V13.2063C22.6663 10.7797 21.2197 9.33301 18.793 9.33301ZM18.4997 18.4997H13.4997C13.2263 18.4997 12.9997 18.273 12.9997 17.9997C12.9997 17.7263 13.2263 17.4997 13.4997 17.4997H18.4997C18.773 17.4997 18.9997 17.7263 18.9997 17.9997C18.9997 18.273 18.773 18.4997 18.4997 18.4997ZM18.4997 14.4997H13.4997C13.2263 14.4997 12.9997 14.273 12.9997 13.9997C12.9997 13.7263 13.2263 13.4997 13.4997 13.4997H18.4997C18.773 13.4997 18.9997 13.7263 18.9997 13.9997C18.9997 14.273 18.773 14.4997 18.4997 14.4997Z" fill="#33835C"/>
</svg>
