<svg width="32" height="32" viewBox="0 0 32 32" fill="none" xmlns="http://www.w3.org/2000/svg">
<rect width="32" height="32" rx="16" fill="#33835C" fill-opacity="0.1"/>
<path d="M9.71954 20.6735L9.70621 20.6868C9.52621 20.2935 9.41288 19.8468 9.36621 19.3535C9.41288 19.8402 9.53954 20.2802 9.71954 20.6735Z" fill="#33835C"/>
<path d="M13.9998 14.9204C14.876 14.9204 15.5864 14.21 15.5864 13.3337C15.5864 12.4574 14.876 11.7471 13.9998 11.7471C13.1235 11.7471 12.4131 12.4574 12.4131 13.3337C12.4131 14.21 13.1235 14.9204 13.9998 14.9204Z" fill="#33835C"/>
<path d="M18.793 9.33301H13.2063C10.7797 9.33301 9.33301 10.7797 9.33301 13.2063V18.793C9.33301 19.5197 9.45967 20.153 9.70634 20.6863C10.2797 21.953 11.5063 22.6663 13.2063 22.6663H18.793C21.2197 22.6663 22.6663 21.2197 22.6663 18.793V17.2663V13.2063C22.6663 10.7797 21.2197 9.33301 18.793 9.33301ZM21.5797 16.333C21.0597 15.8863 20.2197 15.8863 19.6997 16.333L16.9263 18.713C16.4063 19.1597 15.5663 19.1597 15.0463 18.713L14.8197 18.5263C14.3463 18.113 13.593 18.073 13.0597 18.433L10.5663 20.1063C10.4197 19.733 10.333 19.2997 10.333 18.793V13.2063C10.333 11.3263 11.3263 10.333 13.2063 10.333H18.793C20.673 10.333 21.6663 11.3263 21.6663 13.2063V16.4063L21.5797 16.333Z" fill="#33835C"/>
</svg>
